<svg width="34" height="37" viewBox="0 0 34 37" fill="none" xmlns="http://www.w3.org/2000/svg">
<path fill-rule="evenodd" clip-rule="evenodd" d="M20.923 0.554919C21.2933 -0.184973 21.9054 -0.184973 22.2757 0.554919L24.9833 5.96132C25.3547 6.70229 26.3404 7.40541 27.1712 7.52439L33.2292 8.39085C34.06 8.50983 34.249 9.0799 33.6501 9.65537L29.2634 13.8621C28.6645 14.4398 28.2843 15.5767 28.4283 16.3923L29.4623 22.3363C29.6063 23.1497 29.1151 23.5002 28.3722 23.1173L22.9493 20.3102C22.2053 19.9273 21.1328 20.1101 20.5691 20.718C20.5691 20.718 5.72775 32.8181 0.782821 36.8507C0.449862 37.1222 -0.428137 37.0984 0.250966 36.1368C3.77066 31.1674 14.3176 16.2398 14.3176 16.2398C14.7099 15.5096 14.5396 14.4398 13.9363 13.8621L9.54853 9.65537C8.94744 9.0799 9.13645 8.50983 9.9661 8.39085L16.0275 7.52439C16.8593 7.40541 17.8428 6.70229 18.2142 5.96132L20.923 0.554919Z" fill="#EC1A3A"/>
</svg>
