<svg width="118" height="48" viewBox="0 0 118 48" fill="none" xmlns="http://www.w3.org/2000/svg">
<mask id="mask0" mask-type="alpha" maskUnits="userSpaceOnUse" x="50" y="0" width="27" height="29">
<path fill-rule="evenodd" clip-rule="evenodd" d="M50.8457 0.433594H76.4455V28.7338H50.8457V0.433594Z" fill="white"/>
</mask>
<g mask="url(#mask0)">
<path fill-rule="evenodd" clip-rule="evenodd" d="M66.5993 0.858039C66.8781 0.292112 67.339 0.292112 67.6178 0.858039L69.6565 4.99328C69.9361 5.56003 70.6783 6.09783 71.3038 6.18884L75.8651 6.85157C76.4906 6.94258 76.6329 7.37861 76.182 7.81878L72.8791 11.0365C72.4282 11.4783 72.1419 12.3478 72.2503 12.9717L73.0289 17.5181C73.1373 18.1403 72.7674 18.4084 72.2081 18.1155L68.125 15.9685C67.5649 15.6756 66.7573 15.8154 66.3329 16.2804C66.3329 16.2804 55.1583 25.5354 51.4351 28.6199C51.1844 28.8276 50.5233 28.8094 51.0347 28.0738C53.6848 24.2729 61.6259 12.855 61.6259 12.855C61.9213 12.2965 61.7931 11.4783 61.3388 11.0365L58.0351 7.81878C57.5825 7.37861 57.7248 6.94258 58.3495 6.85157L62.9133 6.18884C63.5397 6.09783 64.2802 5.56003 64.5598 4.99328L66.5993 0.858039Z" fill="#EC1A3A"/>
</g>
<path fill-rule="evenodd" clip-rule="evenodd" d="M17.3691 42.001C17.3691 45.2168 19.1387 46.9561 22.4121 46.9561C24.1543 46.9561 25.0684 46.2773 25.0684 44.5674V43.7109H24.0059C23.0527 43.7109 22.3711 43.5791 21.9336 43.2363C21.5176 42.9102 21.3223 42.3936 21.3223 41.6182V28.2256C21.3223 26.7217 20.4668 25.5703 18.4902 25.5703H17.3691V42.001ZM0 39.9346C0 44.5684 3.0957 47.1611 7.01953 47.1611C11.6504 47.1611 13.9805 44.626 13.9805 39.6709V33.7109C13.9805 31.8545 13.0078 30.8799 10.707 30.8799H9.99805V39.8193C9.99805 42.5312 8.84961 43.6533 7.22656 43.6533C5.42773 43.6533 4.00977 42.4727 4.00977 39.5537V33.7109C4.00977 31.8545 3.00781 30.8799 0.736328 30.8799H0V39.9346ZM33.2969 33.8584C31.291 33.8584 29.9922 35.8057 29.9922 38.373C29.9922 41.6768 31.7031 43.8291 33.9746 43.8291C36.1875 43.8291 37.1582 42.1797 37.1582 39.2852C37.1582 35.3047 35.4199 33.8584 33.2969 33.8584ZM33.502 47.1611C29.3125 47.1611 26.0977 43.5039 26.0977 39.1406C26.0977 33.9189 28.6367 30.5264 33.2656 30.5264C34.8594 30.5264 36.5996 31.6475 37.2188 33.0322V25.5703H38.4297C39.3262 25.5703 39.9824 25.8174 40.4238 26.2471C40.9121 26.7217 41.1406 27.4199 41.1406 28.2549V39.4648C41.1406 44.0957 38.959 47.1611 33.502 47.1611ZM51.4023 47.1611C47.4805 47.1611 44.3828 44.5684 44.3828 39.9346V30.8799H45.1191C46.1738 30.8799 46.9551 31.0908 47.4902 31.501C47.8945 31.8105 48.1562 32.2344 48.2891 32.7686C48.332 32.9395 48.3613 33.1211 48.377 33.3135C48.3887 33.4414 48.3945 33.5742 48.3945 33.7109V39.5537C48.3945 42.4727 49.8105 43.6533 51.6094 43.6533C53.2305 43.6533 54.3828 42.5312 54.3828 39.8193V30.8799H55.0898C57.3906 30.8799 58.3633 31.8545 58.3633 33.7109V39.6709C58.3633 44.626 56.0332 47.1611 51.4023 47.1611ZM64.2031 46.8086H71.957C72.4453 46.8086 72.9395 46.5996 73.3203 46.2734C73.7227 45.9277 73.9961 45.4502 73.9961 44.9502V43.417H66.2637C66.6211 42.7686 67.2109 42.0596 67.7715 41.4414L71.7539 37.1328C72.502 36.3193 73.0352 35.5137 73.3672 34.749C73.6504 34.1016 73.7871 33.4844 73.7871 32.918C73.7871 32 73.1699 30.8799 71.3105 30.8799H64.082C62.3145 30.8799 61.459 31.7959 61.459 32.9736V34.1826H69.2754C69.2207 34.293 69.1504 34.4131 69.0684 34.5371L68.9102 34.7686C68.6992 35.0625 68.4473 35.3721 68.207 35.6533L67.9199 35.9814L63.9062 40.3477C62.4023 41.9707 61.4863 43.5039 61.4863 44.7129C61.4863 45.9531 62.375 46.8086 64.2031 46.8086ZM84.2363 47.1611C80.3125 47.1611 77.2168 44.5684 77.2168 39.9346V30.8799H77.9551C79.0762 30.8799 79.8887 31.1182 80.4238 31.582C80.9707 32.0576 81.2285 32.7715 81.2285 33.7109V39.5537C81.2285 42.4727 82.6426 43.6533 84.4434 43.6533C86.0664 43.6533 87.2148 42.5312 87.2148 39.8193V30.8799H87.9258C90.2266 30.8799 91.1992 31.8545 91.1992 33.7109V39.6709C91.1992 44.626 88.8672 47.1611 84.2363 47.1611ZM113.701 43.917C113.701 45.8027 114.557 46.8086 116.709 46.8086H117.684V37.251C117.684 32.7402 114.732 30.5254 111.076 30.5254C109.158 30.5254 107.42 31.5283 106.504 33.0029C105.354 31.4707 103.732 30.5254 101.668 30.5254C96.8594 30.5254 94.5898 33.417 94.5898 37.7529V43.917C94.5898 45.7471 95.8262 46.8086 97.4492 46.8086H98.5117V37.4277C98.5117 36.2529 98.8457 35.3594 99.3926 34.7852C99.8613 34.293 100.488 34.0352 101.195 34.0352C102.936 34.0352 104.145 35.1553 104.145 37.7812V43.917C104.145 45.8027 105.295 46.8086 107.035 46.8086H108.098V37.3418C108.098 36.1377 108.43 35.2568 108.992 34.708C109.451 34.2607 110.066 34.0352 110.781 34.0352C112.521 34.0352 113.701 35.1553 113.701 37.7812V43.917Z" fill="white"/>
</svg>
